<?xml version="1.0" encoding="utf-8"?>
<!-- Generator: Adobe Illustrator 25.0.1, SVG Export Plug-In . SVG Version: 6.00 Build 0)  -->
<svg version="1.1" id="Layer_1" xmlns="http://www.w3.org/2000/svg" xmlns:xlink="http://www.w3.org/1999/xlink" x="0px" y="0px"
	 viewBox="0 0 656.62 188.2" style="enable-background:new 0 0 656.62 188.2;" xml:space="preserve">
<style type="text/css">
	.st0{fill:#164C81;}
	.st1{fill:#686B6B;}
	.st2{fill:#353839;}
</style>
<g>
	<g>
		<polygon class="st0" points="121.92,37.62 159.44,37.62 196.96,37.62 196.96,0 0,0 0,112.96 37.53,112.96 37.53,37.62 
			75.05,37.62 75.05,112.96 112.57,112.96 112.57,150.58 75.05,150.58 75.05,150.58 37.53,150.58 37.53,150.58 0,150.58 0,188.2 
			196.96,188.2 196.96,75.23 159.44,75.23 159.44,150.58 121.92,150.58 121.92,75.23 84.39,75.23 84.39,37.62 		"/>
	</g>
	<g>
		<path class="st1" d="M252.65,173.28c0,1.16-0.33,2.16-0.98,3c-0.65,0.84-1.56,1.49-2.73,1.94c-1.17,0.45-2.51,0.67-4.02,0.67
			c-0.42,0-0.94-0.02-1.56-0.07c-0.61-0.05-1.43-0.19-2.44-0.41c-1.02-0.22-2.08-0.55-3.17-0.99v-4.53
			c1.03,0.58,2.04,1.06,3.04,1.44c0.99,0.38,2.06,0.57,3.2,0.57c1.05,0,1.73-0.16,2.04-0.47c0.31-0.32,0.46-0.61,0.46-0.89
			c0-0.5-0.27-0.92-0.8-1.26c-0.53-0.34-1.3-0.7-2.31-1.06c-1.12-0.43-2.1-0.89-2.95-1.39c-0.84-0.5-1.53-1.13-2.07-1.89
			c-0.53-0.76-0.8-1.65-0.8-2.68c0-0.99,0.27-1.9,0.81-2.7c0.54-0.8,1.37-1.45,2.47-1.93c1.11-0.48,2.46-0.72,4.07-0.72
			c1.14,0,2.19,0.1,3.16,0.3c0.96,0.2,1.76,0.42,2.39,0.67c0.63,0.25,1.06,0.44,1.29,0.59v4.33c-0.83-0.54-1.76-1.03-2.79-1.45
			c-1.03-0.43-2.12-0.64-3.29-0.64c-0.77,0-1.32,0.14-1.67,0.4c-0.34,0.27-0.51,0.6-0.51,0.99c0,0.36,0.17,0.68,0.51,0.95
			c0.35,0.27,0.96,0.59,1.84,0.98c1.57,0.67,2.82,1.27,3.77,1.8c0.94,0.54,1.68,1.15,2.21,1.85
			C252.39,171.38,252.65,172.24,252.65,173.28"/>
		<polygon class="st1" points="310.99,178.82 304.72,178.82 304.72,171.45 295.27,171.45 295.27,178.82 288.99,178.82 
			288.99,159.95 295.27,159.95 295.27,166.88 304.72,166.88 304.72,159.95 310.99,159.95 		"/>
		<rect x="347.66" y="159.96" class="st1" width="6.27" height="18.86"/>
		<path class="st1" d="M408.62,165.89c0,0.7-0.13,1.38-0.4,2.05c-0.27,0.67-0.69,1.29-1.29,1.86c-0.59,0.58-1.39,1.04-2.4,1.4
			c-1.01,0.36-2.19,0.54-3.56,0.54h-4.12v7.08h-6.28v-18.87h10.4c1.36,0,2.55,0.18,3.56,0.55c1.01,0.36,1.81,0.84,2.4,1.42
			c0.59,0.58,1.02,1.21,1.29,1.89C408.48,164.49,408.62,165.18,408.62,165.89 M402.22,165.92c0-0.9-0.29-1.51-0.88-1.84
			c-0.59-0.33-1.64-0.5-3.15-0.5h-1.32v4.55h1.35c1.04,0,1.84-0.06,2.4-0.18c0.56-0.12,0.97-0.34,1.22-0.66
			C402.09,166.97,402.22,166.52,402.22,165.92"/>
		<polygon class="st1" points="468.02,159.95 459.86,170.17 459.86,178.82 453.58,178.82 453.58,170.28 445.27,159.95 
			451.79,159.95 456.57,165.89 461.37,159.95 		"/>
		<path class="st1" d="M530.02,178.82h-6.44l-1.7-3.83h-9.05l-1.73,3.83h-6.43l9.21-18.87h6.94L530.02,178.82z M520.44,171.72
			l-3.05-6.89l-3.08,6.89H520.44z"/>
		<path class="st1" d="M586.83,178.82h-6.75l-1.64-3.35c-0.6-1.22-1.14-2.12-1.62-2.69c-0.48-0.57-0.95-0.93-1.4-1.09
			c-0.46-0.16-1.04-0.24-1.77-0.24h-0.7v7.37h-6.28v-18.87h10.69c1.72,0,3.14,0.32,4.24,0.95c1.1,0.64,1.9,1.41,2.38,2.31
			c0.49,0.91,0.73,1.77,0.73,2.59c0,0.95-0.2,1.76-0.61,2.42c-0.41,0.66-0.83,1.14-1.28,1.44c-0.45,0.3-0.96,0.59-1.52,0.86
			c0.67,0.35,1.22,0.77,1.66,1.26c0.44,0.49,1.03,1.47,1.78,2.95L586.83,178.82z M578.3,165.92c0-0.87-0.32-1.48-0.95-1.82
			c-0.63-0.35-1.66-0.52-3.08-0.52h-1.32v4.55h1.35c1.53,0,2.58-0.15,3.15-0.46C578.02,167.36,578.3,166.78,578.3,165.92"/>
		<path class="st1" d="M644.09,169.72c0,1.93-0.35,3.49-1.05,4.66c-0.7,1.17-1.52,2.12-2.47,2.85c-1.34,1.06-3.23,1.6-5.64,1.6
			h-11.16v-18.88h8.83c1.17,0,2.18,0.06,3.01,0.18c0.83,0.12,1.58,0.29,2.25,0.52c0.67,0.22,1.24,0.47,1.7,0.75
			c0.47,0.28,0.89,0.57,1.26,0.89c0.64,0.53,1.2,1.15,1.68,1.86c0.48,0.72,0.87,1.55,1.15,2.5
			C643.95,167.59,644.09,168.61,644.09,169.72 M637.3,169.48c0-1.54-0.29-2.73-0.87-3.59c-0.58-0.86-1.28-1.43-2.1-1.73
			c-0.82-0.29-1.65-0.44-2.5-0.44h-2.41v11.18h2.41c1.48,0,2.76-0.35,3.84-1.06C636.76,173.14,637.3,171.68,637.3,169.48"/>
	</g>
	<g>
		<g>
			<polygon class="st2" points="256.84,66.48 256.84,150.58 233.39,150.58 233.39,66.48 206.33,66.48 206.33,46.28 283.89,46.28 
				283.89,66.48 			"/>
			<path class="st2" d="M538.67,71.98h22.13v78.55h-22.13v-10.16c-2.06,2.9-4.17,5.17-6.35,6.8c-2.18,1.63-4.35,2.9-6.53,3.81
				c-2.17,0.91-4.23,1.48-6.17,1.73c-1.94,0.24-3.63,0.36-5.08,0.36c-6.05,0-11.52-1.09-16.42-3.27c-4.9-2.18-9.1-5.17-12.61-8.98
				c-3.51-3.81-6.23-8.25-8.16-13.33c-1.93-5.08-2.9-10.52-2.9-16.33c0-5.81,0.93-11.25,2.81-16.33c1.87-5.08,4.54-9.49,7.98-13.24
				c3.45-3.75,7.56-6.71,12.34-8.89c4.78-2.18,10.07-3.26,15.87-3.26c1.45,0,3.23,0.12,5.35,0.36c2.11,0.24,4.35,0.79,6.71,1.63
				c2.36,0.85,4.69,2.12,6.98,3.81c2.3,1.69,4.35,3.99,6.17,6.89V71.98z M519.07,89.03c-3.15,0-6.05,0.58-8.71,1.72
				c-2.66,1.15-4.96,2.72-6.89,4.72c-1.93,2-3.45,4.33-4.54,6.98c-1.09,2.66-1.63,5.56-1.63,8.71c0,3.15,0.54,6.08,1.63,8.8
				c1.09,2.72,2.6,5.08,4.54,7.07c1.93,2,4.23,3.57,6.89,4.72c2.66,1.15,5.56,1.72,8.71,1.72c3.14,0,6.05-0.57,8.71-1.72
				c2.66-1.15,4.96-2.72,6.89-4.72c1.93-1.99,3.45-4.35,4.53-7.07c1.09-2.72,1.63-5.65,1.63-8.8c0-3.14-0.54-6.05-1.63-8.71
				c-1.09-2.66-2.6-4.99-4.53-6.98c-1.94-2-4.24-3.57-6.89-4.72C525.12,89.61,522.22,89.03,519.07,89.03"/>
			<path class="st2" d="M344.71,129.34c-0.59,1.41-1.61,3.43-3.08,6.06c-1.46,2.63-3.63,5.27-6.5,7.91
				c-2.87,2.63-6.56,4.92-11.07,6.85c-4.51,1.93-10.1,2.9-16.77,2.9c-6.21,0-11.68-0.88-16.42-2.64c-4.75-1.75-8.99-4.45-12.74-8.08
				c-4.22-3.98-7.26-8.43-9.14-13.35c-1.87-4.92-2.81-10.36-2.81-16.34c0-7.61,1.25-13.82,3.78-18.62c2.51-4.8,5.12-8.55,7.82-11.24
				c4.45-4.33,9.19-7.2,14.23-8.61c5.03-1.41,9.84-2.11,14.4-2.11c7.73,0,13.94,1.29,18.62,3.86c4.68,2.58,8.37,5.44,11.07,8.61
				c1.99,2.46,3.6,5,4.83,7.64c1.23,2.63,2.17,5.24,2.81,7.82c0.64,2.58,1.05,5.09,1.23,7.56c0.18,2.46,0.26,4.74,0.26,6.85v1.76
				h-56.92c0,2.34,0.29,4.66,0.88,6.94c0.58,2.28,1.52,4.25,2.81,5.89c1.17,1.64,2.98,3.25,5.44,4.83c2.46,1.58,5.74,2.37,9.84,2.37
				c4.1,0,7.64-0.91,10.63-2.72c2.99-1.81,5.36-4.24,7.12-7.29L344.71,129.34z M325.03,102.47c-0.94-5.27-3.2-9.14-6.77-11.6
				c-3.57-2.46-7.35-3.69-11.33-3.69c-3.98,0-7.73,1.26-11.24,3.78c-3.51,2.52-5.74,6.36-6.68,11.51H325.03z"/>
			<path class="st2" d="M354.57,72.09h22.11v11.8c1.69-3.39,3.54-5.93,5.53-7.62s3.41-2.78,4.26-3.27c3.62-2.3,7.98-3.45,13.05-3.45
				c1.93,0,3.65,0.18,5.16,0.54c1.51,0.36,2.93,0.79,4.26,1.27l-2.9,20.69c-1.45-0.97-2.96-1.69-4.53-2.18
				c-1.57-0.48-3.51-0.72-5.8-0.72c-2.06,0-4.47,0.36-7.25,1.09c-2.78,0.73-5.26,2.48-7.43,5.26c-2.06,2.66-3.3,5.54-3.72,8.62
				c-0.43,3.09-0.63,6.02-0.63,8.8v37.65h-22.11V72.09z"/>
			<path class="st2" d="M454.37,90.71c-2.65-2.41-5.14-3.89-7.48-4.43c-2.35-0.54-4.12-0.81-5.32-0.81c-2.64,0-4.72,0.58-6.22,1.72
				c-1.5,1.15-2.25,2.68-2.25,4.61c0,0.97,0.39,2.14,1.17,3.52c0.78,1.39,2.73,2.56,5.86,3.53l5.23,1.63
				c1.56,0.48,3.25,1.06,5.05,1.72c1.8,0.67,3.61,1.45,5.41,2.35c1.8,0.91,3.55,1.93,5.23,3.08c1.68,1.15,3.07,2.5,4.15,4.07
				c1.2,1.69,2.17,3.65,2.89,5.88c0.72,2.23,1.08,4.61,1.08,7.14c0,3.5-0.66,6.96-1.98,10.4c-1.33,3.44-3.55,6.6-6.68,9.5
				c-3.13,2.89-6.61,5-10.46,6.33c-3.85,1.32-8.18,1.99-12.99,1.99c-4.09,0-7.73-0.43-10.91-1.27c-3.19-0.84-6.02-1.92-8.48-3.25
				c-2.46-1.33-4.6-2.74-6.4-4.25c-1.8-1.5-3.31-2.92-4.51-4.25l11.55-13.38c2.17,2.53,4.78,4.67,7.85,6.42
				c3.07,1.75,6.22,2.62,9.47,2.62c3.13,0,5.71-0.72,7.76-2.17c2.04-1.45,3.07-3.56,3.07-6.33c0-2.41-0.78-4.19-2.34-5.33
				c-1.57-1.14-3.07-2.02-4.51-2.62l-5.05-1.81c-2.77-0.96-5.65-2.17-8.66-3.61c-3.01-1.45-5.71-3.37-8.12-5.79
				c-1.8-1.93-3.25-4.13-4.33-6.6c-1.08-2.47-1.62-5.28-1.62-8.41c0-3.86,0.78-7.29,2.35-10.31c1.56-3.01,3.48-5.48,5.77-7.41
				c3.13-2.41,6.52-3.95,10.19-4.61c3.67-0.66,7.07-0.99,10.2-0.99c2.88,0,6.52,0.45,10.91,1.36c4.39,0.9,9.05,3.23,13.98,6.96
				L454.37,90.71z"/>
			<path class="st2" d="M570.14,72.09h22.12v10.15c1.09-1.45,2.36-2.93,3.81-4.44c1.45-1.51,3.17-2.87,5.17-4.08
				c2-1.21,4.26-2.2,6.8-2.99c2.54-0.78,5.38-1.18,8.52-1.18c3.5,0,7.46,0.63,11.87,1.9c4.41,1.27,8.19,3.84,11.33,7.7
				c2.78,3.38,4.5,6.95,5.17,10.69c0.66,3.75,1,7.56,1,11.42v49.31H623.8V107.8c0-2.17-0.21-4.77-0.64-7.79
				c-0.42-3.02-1.6-5.56-3.53-7.61c-1.69-1.81-3.57-2.93-5.62-3.35c-2.06-0.42-3.63-0.63-4.71-0.63c-2.9,0-5.47,0.54-7.7,1.63
				c-2.24,1.09-4.2,2.84-5.89,5.26c-1.69,2.54-2.69,5.14-2.99,7.79c-0.3,2.66-0.45,5.14-0.45,7.43v40.06h-22.12V72.09z"/>
		</g>
		<path class="st2" d="M648.75,78.93c-4.34,0-7.88-3.54-7.88-7.88s3.54-7.88,7.88-7.88c4.34,0,7.88,3.53,7.88,7.88
			S653.09,78.93,648.75,78.93 M648.75,64.43c-3.65,0-6.63,2.97-6.63,6.63c0,3.66,2.97,6.63,6.63,6.63c3.66,0,6.63-2.97,6.63-6.63
			C655.37,67.4,652.4,64.43,648.75,64.43"/>
		<path class="st2" d="M645.53,74.7v-7.29h3.23c0.65,0,1.14,0.07,1.48,0.2c0.34,0.13,0.61,0.36,0.81,0.69c0.2,0.33,0.3,0.7,0.3,1.1
			c0,0.52-0.17,0.95-0.5,1.31c-0.33,0.35-0.85,0.58-1.55,0.68c0.26,0.12,0.45,0.24,0.58,0.36c0.28,0.26,0.55,0.58,0.8,0.97
			l1.27,1.98h-1.21l-0.96-1.51c-0.28-0.44-0.51-0.77-0.7-1.01c-0.18-0.23-0.34-0.39-0.49-0.49c-0.14-0.09-0.29-0.16-0.44-0.19
			c-0.11-0.02-0.29-0.03-0.54-0.03h-1.12v3.23H645.53z M646.5,70.63h2.07c0.44,0,0.79-0.04,1.03-0.14c0.25-0.09,0.43-0.24,0.57-0.44
			c0.13-0.2,0.19-0.42,0.19-0.65c0-0.34-0.13-0.63-0.38-0.85c-0.25-0.22-0.64-0.33-1.19-0.33h-2.3V70.63z"/>
	</g>
</g>
</svg>
