<?xml version="1.0" standalone="no"?>
<!DOCTYPE svg PUBLIC "-//W3C//DTD SVG 20010904//EN"
 "http://www.w3.org/TR/2001/REC-SVG-20010904/DTD/svg10.dtd">
<svg version="1.0" xmlns="http://www.w3.org/2000/svg"
 width="8014.000000pt" height="3471.000000pt" viewBox="0 0 8014.000000 3471.000000"
 preserveAspectRatio="xMidYMid meet">

<g transform="translate(0.000000,3471.000000) scale(0.100000,-0.100000)"
fill="#000000" stroke="none">
<path d="M62602 27433 l3 -328 488 -3 487 -2 0 330 0 330 -490 0 -490 0 2
-327z"/>
<path d="M20550 27255 l0 -35 -516 0 c-487 0 -516 -1 -510 -17 4 -10 98 -219
209 -465 l202 -448 192 0 c117 0 194 -4 198 -10 4 -6 160 -10 435 -10 275 0
431 4 435 10 4 6 81 10 199 10 l192 0 207 458 c114 251 207 460 207 465 0 4
-232 7 -515 7 l-515 0 0 35 0 35 -210 0 -210 0 0 -35z"/>
<path d="M34811 20173 c-17 -74 -292 -1366 -641 -3018 -94 -440 -172 -810
-175 -822 l-5 -23 2771 0 c2635 0 2771 1 2766 18 -4 15 -297 667 -963 2142
-118 261 -344 762 -502 1112 l-287 638 -1477 0 -1476 0 -11 -47z"/>
<path d="M47550 17510 l0 -440 1085 0 1085 0 0 440 0 440 -1085 0 -1085 0 0
-440z"/>
<path d="M33520 14225 l0 -725 1085 0 1085 0 0 725 0 725 -1085 0 -1085 0 0
-725z"/>
<path d="M36730 14225 l0 -725 1085 0 1085 0 0 725 0 725 -1085 0 -1085 0 0
-725z"/>
<path d="M40040 14225 l0 -725 1085 0 1085 0 0 725 0 725 -1085 0 -1085 0 0
-725z"/>
<path d="M43090 14225 l0 -725 1090 0 1090 0 0 725 0 725 -1090 0 -1090 0 0
-725z"/>
<path d="M47550 14225 l0 -725 1085 0 1085 0 0 725 0 725 -1085 0 -1085 0 0
-725z"/>
<path d="M50774 14759 c-8 -14 4 -145 23 -239 8 -41 30 -114 49 -163 127 -330
410 -598 754 -713 l85 -29 1565 0 1565 0 80 27 c221 76 412 253 534 496 77
153 131 378 131 544 l0 88 -2389 0 c-1703 0 -2392 -3 -2397 -11z"/>
<path d="M16 12793 c214 -324 7076 -10837 7079 -10846 4 -8 -13 -19 -44 -30
-28 -10 -84 -40 -125 -67 -328 -220 -483 -731 -361 -1188 87 -323 291 -561
545 -636 51 -15 2924 -16 35830 -16 32906 0 35779 1 35830 16 184 54 360 214
463 419 153 309 163 703 24 1024 -71 162 -205 325 -330 400 -125 74 -170 84
-400 90 l-209 6 112 83 c267 200 526 514 741 897 399 713 705 1750 855 2900
24 186 26 236 68 2365 24 1196 42 2177 39 2180 -5 5 -10783 91 -10799 86 -6
-3 -14 -35 -18 -73 -39 -387 -164 -959 -298 -1358 -248 -739 -607 -1246 -1033
-1458 -97 -48 -199 -83 -293 -101 -165 -31 -1647 -126 -2212 -141 -377 -10
-4782 -132 -6700 -185 -993 -28 -3018 -84 -4500 -125 l-2695 -75 -7695 -57
-7695 -56 -3445 37 c-5734 62 -6852 75 -7175 81 -170 3 -674 12 -1120 20
-2738 50 -5059 111 -6115 160 -652 31 -811 52 -1021 134 -195 76 -354 186
-520 359 -224 232 -393 534 -504 902 -24 80 -79 244 -120 365 -134 386 -322
948 -411 1228 -48 150 -95 288 -105 308 -43 85 -181 166 -363 213 l-98 26
-1382 0 c-759 -1 -1455 -5 -1546 -10 -298 -17 -933 -24 -1085 -11 -602 50
-1132 216 -1585 496 -123 77 -275 192 -325 246 -22 24 -258 353 -525 732
l-485 687 -4133 0 -4134 0 18 -27z m8785 -4181 c357 -99 638 -361 755 -704 72
-211 72 -484 1 -693 -182 -531 -716 -832 -1269 -715 -387 83 -710 394 -815
785 -23 89 -26 119 -27 270 0 148 2 182 23 260 112 430 436 731 881 818 14 3
104 4 200 3 141 -3 190 -7 251 -24z"/>
<path d="M8397 8380 c-174 -31 -315 -101 -436 -215 -284 -267 -346 -689 -149
-1029 49 -85 197 -236 280 -285 145 -85 263 -116 438 -115 162 0 221 14 367
84 176 85 331 255 401 438 44 113 56 183 55 312 -2 238 -86 427 -265 595 -107
101 -215 160 -364 200 -70 19 -259 28 -327 15z"/>
<path d="M33520 12100 l0 -720 1085 0 1085 0 0 720 0 720 -1085 0 -1085 0 0
-720z"/>
<path d="M36730 12100 l0 -720 1085 0 1085 0 0 720 0 720 -1085 0 -1085 0 0
-720z"/>
<path d="M40040 12100 l0 -720 1085 0 1085 0 0 720 0 720 -1085 0 -1085 0 0
-720z"/>
<path d="M43090 12100 l0 -720 1090 0 1090 0 0 720 0 720 -1090 0 -1090 0 0
-720z"/>
<path d="M47550 12100 l0 -720 1085 0 1085 0 0 720 0 720 -1085 0 -1085 0 0
-720z"/>
<path d="M52880 12230 l0 -440 1085 0 1085 0 0 440 0 440 -1085 0 -1085 0 0
-440z"/>
<path d="M32330 8300 l0 -440 1085 0 1085 0 0 440 0 440 -1085 0 -1085 0 0
-440z"/>
<path d="M35120 8300 l0 -440 1090 0 1090 0 0 440 0 440 -1090 0 -1090 0 0
-440z"/>
<path d="M37920 8300 l0 -440 1085 0 1085 0 0 440 0 440 -1085 0 -1085 0 0
-440z"/>
<path d="M40710 8300 l0 -440 1090 0 1090 0 0 440 0 440 -1090 0 -1090 0 0
-440z"/>
<path d="M43510 8300 l0 -440 1085 0 1085 0 0 440 0 440 -1085 0 -1085 0 0
-440z"/>
<path d="M46300 8300 l0 -440 1090 0 1090 0 0 440 0 440 -1090 0 -1090 0 0
-440z"/>
<path d="M49100 8300 l0 -440 1085 0 1085 0 0 440 0 440 -1085 0 -1085 0 0
-440z"/>
<path d="M51890 8300 l0 -440 1090 0 1090 0 0 440 0 440 -1090 0 -1090 0 0
-440z"/>
<path d="M54690 8300 l0 -440 1085 0 1085 0 0 440 0 440 -1085 0 -1085 0 0
-440z"/>
</g>
</svg>
